<?xml version="1.0" encoding="utf-8"?>
<!-- Generator: Adobe Illustrator 25.2.1, SVG Export Plug-In . SVG Version: 6.00 Build 0)  -->
<svg version="1.1" id="Lager_1" xmlns="http://www.w3.org/2000/svg" xmlns:xlink="http://www.w3.org/1999/xlink" x="0px" y="0px"
	 viewBox="0 0 560 560" style="enable-background:new 0 0 560 560;" xml:space="preserve">
<style type="text/css">
	.st0{fill:#FFFFFF;}
	.st1{fill:#2F7EF5;}
	.st2{display:none;}
	.st3{display:inline;fill:#FFFFFF;}
</style>
<g>
	<g>
		<path class="st0" d="M280,540c-69.4,0-134.7-27-183.8-76.2C47,414.7,20,349.4,20,280c0-69.4,27-134.7,76.2-183.8
			C145.3,47,210.6,20,280,20c69.4,0,134.7,27,183.8,76.2C513,145.3,540,210.6,540,280s-27,134.7-76.2,183.8
			C414.7,513,349.4,540,280,540z"/>
		<path class="st1" d="M280,40c64.1,0,124.4,25,169.7,70.3C495,155.6,520,215.9,520,280s-25,124.4-70.3,169.7
			C404.4,495,344.1,520,280,520c-64.1,0-124.4-25-169.7-70.3C65,404.4,40,344.1,40,280s25-124.4,70.3-169.7
			C155.6,65,215.9,40,280,40 M280,0C205.3,0,134.9,29.1,82,82S0,205.3,0,280c0,74.7,29.1,145.1,82,198s123.1,82,198,82
			c74.7,0,145.1-29.1,198-82c52.9-52.9,82-123.2,82-198c0-74.7-29.1-145.1-82-198S354.7,0,280,0L280,0z"/>
	</g>
</g>
<g class="st2">
	<path class="st3" d="M288,308.6h-99.4v142.6h-29.1V109.1h111.2c36.5,0,65,8.8,85.5,26.5S387,178,387,209.8c0,21.9-6.4,41.2-19.3,58
		c-12.8,16.7-30.1,28.3-51.7,34.7l85.5,145.7v3.1h-30.8L288,308.6z M188.6,284.2h88.6c24.3,0,43.8-6.9,58.5-20.7
		c14.7-13.8,22.1-31.7,22.1-53.7c0-24.2-7.7-42.9-23-56.2c-15.4-13.3-36.9-20-64.6-20h-81.5v150.6H188.6z"/>
</g>
<g>
	<path class="st1" d="M277.3,312h-53.6v106.5h-48.1v-277H273c32,0,56.6,7.2,74,21.5c17.4,14.3,26.1,35.1,26.1,62.3
		c0,18.5-4.5,34-13.4,46.5c-8.9,12.5-21.4,22.1-37.4,28.8L384.4,416v2.5h-51.5L277.3,312z M223.7,273.2h49.5
		c16.2,0,28.9-4.1,38-12.3c9.1-8.2,13.7-19.4,13.7-33.6c0-14.8-4.2-26.3-12.7-34.4c-8.4-8.1-21-12.3-37.8-12.6h-50.8V273.2z"/>
</g>
</svg>
