<?xml version="1.0" standalone="no"?>
<!DOCTYPE svg PUBLIC "-//W3C//DTD SVG 20010904//EN"
 "http://www.w3.org/TR/2001/REC-SVG-20010904/DTD/svg10.dtd">
<svg version="1.0" xmlns="http://www.w3.org/2000/svg"
 width="700.000000pt" height="700.000000pt" viewBox="0 0 700.000000 700.000000"
 preserveAspectRatio="xMidYMid meet">
<metadata>
Created by potrace 1.11, written by Peter Selinger 2001-2013
</metadata>
<g transform="translate(0.000000,700.000000) scale(0.100000,-0.100000)"
fill="#000000" stroke="none">
<path d="M3275 6994 c-502 -41 -900 -147 -1320 -354 -367 -181 -656 -391 -952
-691 -626 -635 -970 -1443 -999 -2344 -27 -831 240 -1635 762 -2290 117 -147
431 -459 574 -569 238 -185 488 -335 750 -450 1008 -444 2194 -383 3145 164
278 159 486 320 735 570 205 204 317 340 456 550 881 1334 733 3128 -353 4290
-319 340 -630 574 -1028 770 -364 179 -727 287 -1125 335 -129 15 -538 27
-645 19z m470 -504 c1132 -94 2117 -819 2538 -1870 391 -975 245 -2087 -384
-2920 -493 -653 -1195 -1062 -2019 -1177 -175 -24 -585 -24 -760 0 -824 115
-1526 524 -2019 1177 -629 834 -776 1944 -384 2920 196 490 523 922 948 1253
585 456 1335 678 2080 617z"/>
<path d="M2200 3501 l0 -1731 300 0 300 0 0 665 0 665 333 0 333 0 346 -662
346 -663 321 -3 c314 -2 321 -2 321 18 0 10 -174 342 -386 736 -212 394 -384
717 -382 719 2 1 29 14 61 28 205 93 392 275 482 471 65 140 80 224 79 451 0
185 -2 208 -27 300 -106 394 -387 623 -872 712 -77 14 -195 17 -822 20 l-733
4 0 -1730z m1319 1239 c181 -19 300 -69 396 -166 93 -94 145 -243 145 -411 -1
-273 -135 -459 -394 -546 -57 -19 -90 -21 -468 -24 l-408 -4 0 574 c0 315 3
577 7 580 10 11 611 8 722 -3z"/>
</g>
</svg>
