<?xml version="1.0" encoding="utf-8"?>
<!-- Generator: Adobe Illustrator 25.2.1, SVG Export Plug-In . SVG Version: 6.00 Build 0)  -->
<svg version="1.1" id="Layer_1" xmlns="http://www.w3.org/2000/svg" xmlns:xlink="http://www.w3.org/1999/xlink" x="0px" y="0px"
	 viewBox="0 0 335.3 377.2" style="enable-background:new 0 0 335.3 377.2;" xml:space="preserve">
<style type="text/css">
	.st0{fill:#265AA6;}
	.st1{fill:#449DD7;}
	.st2{display:none;}
	.st3{display:inline;}
	.st4{fill:#FFFFFF;}
	.st5{fill:url(#SVGID_1_);}
	.st6{fill:url(#SVGID_2_);}
	.st7{fill:url(#SVGID_3_);}
	.st8{opacity:5.000000e-02;}
	.st9{fill:url(#SVGID_4_);}
	.st10{opacity:5.000000e-02;enable-background:new    ;}
</style>
<g>
	<g>
		<polygon class="st0" points="303.9,340.5 167.6,377.2 31.4,340.5 0,0 335.3,0 		"/>
		<polygon class="st1" points="167.6,27.6 167.6,347.9 167.9,348 278.2,318.3 303.6,27.6 		"/>
		<g class="st2">
			<polygon class="st3" points="90.3,-50.1 90.3,-70.3 119.9,-70.3 119.9,-92.5 68.2,-92.5 68.2,-29.8 119.9,-29.8 119.9,-50.1 			
				"/>
			<path class="st3" d="M173.1-70.3h20.7v-22.2H142c0,0,0,11.1,0,22.2c6.9,6.9,10.5,10.2,20.5,20.3c-5.9,0-20.5,0-20.5,0v20.2h51.8
				v-20.3L173.1-70.3z"/>
			<path class="st3" d="M246.5-70.3h20.7v-22.2h-51.8c0,0,0,11.1,0,22.2c6.9,6.9,10.5,10.2,20.6,20.3c-5.9,0-20.6,0-20.6,0v20.2
				h51.8v-20.3L246.5-70.3z"/>
		</g>
		<g>
			<polygon class="st4" points="167.5,112.7 70,153.3 73.3,193.5 167.5,153.2 267.8,110.3 271.9,69.2 			"/>
			
				<linearGradient id="SVGID_1_" gradientUnits="userSpaceOnUse" x1="118.75" y1="489.5" x2="118.75" y2="408.7" gradientTransform="matrix(1 0 0 1 0 -296)">
				<stop  offset="0.3865" style="stop-color:#DADADA;stop-opacity:0"/>
				<stop  offset="1" style="stop-color:#DADADA"/>
			</linearGradient>
			<polygon class="st5" points="70,153.3 73.3,193.5 167.5,153.2 167.5,112.7 			"/>
			
				<linearGradient id="SVGID_2_" gradientUnits="userSpaceOnUse" x1="219.7" y1="449.2" x2="219.7" y2="365.2" gradientTransform="matrix(1 0 0 1 0 -296)">
				<stop  offset="0.3865" style="stop-color:#DADADA;stop-opacity:0"/>
				<stop  offset="1" style="stop-color:#DADADA"/>
			</linearGradient>
			<polygon class="st6" points="271.9,69.2 167.5,112.7 167.5,153.2 267.8,110.3 			"/>
			
				<linearGradient id="SVGID_3_" gradientUnits="userSpaceOnUse" x1="70.2" y1="525.55" x2="264.2" y2="525.55" gradientTransform="matrix(1 0 0 1 0 -296)">
				<stop  offset="0" style="stop-color:#EEEDED"/>
				<stop  offset="1" style="stop-color:#FFFFFF"/>
			</linearGradient>
			<polygon class="st7" points="70.2,153.3 73.4,193.5 218,194 214.8,247.6 167.2,261 121.5,249.4 118.7,216.1 76.2,216.1 
				81.7,280.4 167.7,305.8 253.2,280.8 264.2,153.3 			"/>
			<g class="st8">
				<polygon points="167.5,153.3 70,153.3 73.3,193.5 167.5,193.8 				"/>
				<polygon points="167.5,260.8 167.1,261 121.3,249.4 118.5,216.1 76,216.1 81.6,280.4 167.5,305.8 				"/>
			</g>
			
				<linearGradient id="SVGID_4_" gradientUnits="userSpaceOnUse" x1="61.3" y1="385.75" x2="271.9" y2="385.75" gradientTransform="matrix(1 0 0 1 0 -296)">
				<stop  offset="0" style="stop-color:#EEEDED"/>
				<stop  offset="1" style="stop-color:#FFFFFF"/>
			</linearGradient>
			<polygon class="st9" points="61.3,69.2 271.9,69.2 267.8,110.3 66.3,110.3 			"/>
			<polygon class="st10" points="167.5,69.2 61.3,69.2 66.3,110.3 167.5,110.3 			"/>
		</g>
	</g>
</g>
</svg>
