<?xml version="1.0" encoding="utf-8"?>
<!-- Generator: Adobe Illustrator 25.2.0, SVG Export Plug-In . SVG Version: 6.00 Build 0)  -->
<svg version="1.1" id="Lager_1" xmlns="http://www.w3.org/2000/svg" xmlns:xlink="http://www.w3.org/1999/xlink" x="0px" y="0px"
	 viewBox="0 0 111 151" style="enable-background:new 0 0 111 151;" xml:space="preserve">
<style type="text/css">
	.st0{filter:url(#Adobe_OpacityMaskFilter);}
	.st1{fill-rule:evenodd;clip-rule:evenodd;fill:#FFFFFF;}
	.st2{mask:url(#mask-3_1_);}
	.st3{fill:#FFA000;}
	.st4{fill:#F57C00;}
	.st5{fill:#FFCA28;}
	.st6{fill:#FFFFFF;fill-opacity:0.2;}
	.st7{opacity:0.2;fill:#A52714;enable-background:new    ;}
	.st8{filter:url(#Adobe_OpacityMaskFilter_1_);}
	.st9{mask:url(#mask-3_3_);fill:url(#_Path_5_2_);}
</style>
<g id="Page-1">
	<g id="styleguide" transform="translate(-664.000000, -1272.000000)">
		<g id="Group-16" transform="translate(40.000000, 1187.000000)">
			<g id="Group-9" transform="translate(114.000000, 0.000000)">
				<g id="Group-26" transform="translate(405.000000, 1.000000)">
					<g id="logo_lockup_firebase_vertical" transform="translate(105.193370, 83.977901)">
						<g id="_Group_">
							<defs>
								<filter id="Adobe_OpacityMaskFilter" filterUnits="userSpaceOnUse" x="0.4" y="0.1" width="109.6" height="150">
									<feColorMatrix  type="matrix" values="1 0 0 0 0  0 1 0 0 0  0 0 1 0 0  0 0 0 1 0"/>
								</filter>
							</defs>
							<mask maskUnits="userSpaceOnUse" x="0.4" y="0.1" width="109.6" height="150" id="mask-3_1_">
								<g class="st0">
									<path id="path-2_2_" class="st1" d="M95.8,33.6c-0.2-1.3-1.1-2.3-2.3-2.7c-1.2-0.4-2.6-0.1-3.5,0.8L72.3,49.6l-14-26.5
										c-0.6-1.1-1.7-1.9-3-1.9s-2.4,0.7-3,1.9l-7.6,14.5L25.4,1.9C23.9-1,19.5-0.2,19,3L0.5,121.2L50,148.9c3.1,1.7,6.9,1.7,10,0
										l50-27.7L95.8,33.6z"/>
								</g>
							</mask>
							<g id="_Group_2" class="st2">
								<g transform="translate(-6.346125, -0.160154)">
									<g id="_Group_3">
										<path id="_Path_" class="st3" d="M6.8,121.3L25.4,3.2c0.5-3.2,4.9-4,6.4-1.1L51,37.7l7.6-14.5c0.6-1.1,1.8-1.8,3-1.8
											c1.3,0,2.4,0.7,3,1.8l51.7,98.1H6.8z"/>
										<g id="_Group_4" transform="translate(0.000000, 30.119310)">
											<polygon id="Shape" class="st4" points="70.8,45.2 50.9,7.6 6.8,91.2 											"/>
										</g>
									</g>
									<g id="_Group_5" transform="translate(3.421930, 23.299844)">
										<g id="_Group_6" transform="translate(3.421930, 7.387755)">
											<path id="_Path_2" class="st5" d="M109.5,90.6L95.3,3.1c-0.2-1.3-1.1-2.3-2.3-2.7s-2.6-0.1-3.5,0.8L0,90.6l49.5,27.7
												c3.1,1.7,6.9,1.7,10,0L109.5,90.6z"/>
										</g>
									</g>
									<path id="_Compound_Path_" class="st6" d="M102.1,33.8c-0.2-1.3-1.1-2.3-2.3-2.7c-1.2-0.4-2.6-0.1-3.5,0.8L78.6,49.7
										l-14-26.5c-0.6-1.1-1.7-1.9-3-1.9c-1.3,0-2.4,0.7-3,1.9L51,37.7L31.7,2.1c-1.5-2.9-5.9-2.1-6.4,1.1L6.8,121.3H6.8l0.1,0.1
										l0.5,0.3l71.2-71.1l17.8-17.7c0.9-0.9,2.3-1.2,3.5-0.8c1.2,0.4,2.1,1.4,2.3,2.7l14,86.7l0.2-0.1L102.1,33.8z M7,121.2
										L25.4,4c0.5-3.2,4.9-4,6.4-1.1L51,38.6l7.6-14.5c0.6-1.1,1.8-1.8,3-1.8c1.3,0,2.4,0.7,3,1.8L78.4,50L7,121.2z"/>
									<path id="_Path_3" class="st7" d="M66.4,148.2c-3.1,1.7-6.9,1.7-10,0L6.9,120.6l-0.1,0.8L56.4,149c3.1,1.7,6.9,1.7,10,0
										l50-27.7l-0.1-0.8L66.4,148.2z"/>
								</g>
							</g>
							<defs>
								<filter id="Adobe_OpacityMaskFilter_1_" filterUnits="userSpaceOnUse" x="0.5" y="0.1" width="109.5" height="150">
									<feColorMatrix  type="matrix" values="1 0 0 0 0  0 1 0 0 0  0 0 1 0 0  0 0 0 1 0"/>
								</filter>
							</defs>
							<mask maskUnits="userSpaceOnUse" x="0.5" y="0.1" width="109.5" height="150" id="mask-3_3_">
								<g class="st8">
									<path id="path-2_4_" class="st1" d="M95.8,33.6c-0.2-1.3-1.1-2.3-2.3-2.7c-1.2-0.4-2.6-0.1-3.5,0.8L72.3,49.6l-14-26.5
										c-0.6-1.1-1.7-1.9-3-1.9s-2.4,0.7-3,1.9l-7.6,14.5L25.4,1.9C23.9-1,19.5-0.2,19,3L0.5,121.2L50,148.9c3.1,1.7,6.9,1.7,10,0
										l50-27.7L95.8,33.6z"/>
								</g>
							</mask>
							
								<linearGradient id="_Path_5_2_" gradientUnits="userSpaceOnUse" x1="-895.9727" y1="1029.96" x2="-894.9295" y2="1029.2014" gradientTransform="matrix(109.5018 0 0 -150.0389 98107.2734 154559.75)">
								<stop  offset="0" style="stop-color:#FFFFFF;stop-opacity:0.1"/>
								<stop  offset="1" style="stop-color:#FFFFFF;stop-opacity:0"/>
							</linearGradient>
							<path id="_Path_5_1_" class="st9" d="M95.8,33.6c-0.2-1.3-1.1-2.3-2.3-2.7c-1.2-0.4-2.6-0.1-3.5,0.8L72.3,49.6l-14-26.5
								c-0.6-1.1-1.7-1.9-3-1.9s-2.4,0.7-3,1.9l-7.6,14.5L25.4,1.9C23.9-1,19.5-0.2,19,3L0.5,121.2L50,148.9c3.1,1.7,6.9,1.7,10,0
								l50-27.7L95.8,33.6z"/>
						</g>
					</g>
				</g>
			</g>
		</g>
	</g>
</g>
</svg>
