<?xml version="1.0" encoding="utf-8"?>
<!-- Generator: Adobe Illustrator 25.2.0, SVG Export Plug-In . SVG Version: 6.00 Build 0)  -->
<svg version="1.1" id="Layer_1" xmlns="http://www.w3.org/2000/svg" xmlns:xlink="http://www.w3.org/1999/xlink" x="0px" y="0px"
	 viewBox="89.21 90 433.58 612" enable-background="new 89.21 90 433.58 612" xml:space="preserve">
<title>HTML5 Logo</title>
<polygon fill="#E44D26" points="128.668,652.845 89.21,210.273 522.79,210.273 483.289,652.775 305.735,702 "/>
<polygon fill="#F16529" points="306,664.375 449.473,624.599 483.229,246.459 306,246.459 "/>
<polygon fill="#EBEBEB" points="306,410.604 234.174,410.604 229.213,355.02 306,355.02 306,300.74 305.812,300.74 169.892,300.74 
	171.192,315.302 184.532,464.882 306,464.882 "/>
<polygon fill="#EBEBEB" points="306,551.573 305.762,551.637 245.311,535.313 241.446,492.023 212.072,492.023 186.957,492.023 
	194.562,577.25 305.75,608.116 306,608.047 "/>
<path d="M129.55,90h27.585v27.253h25.232V90h27.586v82.529h-27.585v-27.636h-25.232v27.636h-27.584V90H129.55z"/>
<path d="M246.227,117.368h-24.283V90h76.165v27.368h-24.295v55.162h-27.585v-55.162H246.227z"/>
<path d="M310.197,90h28.763l17.693,28.998L374.327,90h28.773v82.529H375.63v-40.906l-18.978,29.344h-0.475l-18.991-29.344v40.906
	h-26.99V90z"/>
<path d="M416.829,90h27.593v55.25h38.791v27.279h-66.384V90z"/>
<polygon fill="#FFFFFF" points="305.812,410.604 305.812,464.882 372.652,464.882 366.351,535.279 305.812,551.619 305.812,608.09 
	417.088,577.25 417.905,568.08 430.66,425.179 431.985,410.604 417.358,410.604 "/>
<polygon fill="#FFFFFF" points="305.812,300.74 305.812,334.452 305.812,354.887 305.812,355.02 436.749,355.02 436.749,355.02 
	436.923,355.02 438.012,342.819 440.486,315.302 441.783,300.74 "/>
</svg>
