<?xml version="1.0" encoding="utf-8"?>
<!-- Generator: Adobe Illustrator 25.2.1, SVG Export Plug-In . SVG Version: 6.00 Build 0)  -->
<svg version="1.1" id="Layer_1" xmlns="http://www.w3.org/2000/svg" xmlns:xlink="http://www.w3.org/1999/xlink" x="0px" y="0px"
	 viewBox="0 0 433.6 491.7" style="enable-background:new 0 0 433.6 491.7;" xml:space="preserve">
<style type="text/css">
	.st0{fill:#E44D26;}
	.st1{fill:#F16529;}
	.st2{fill:#EBEBEB;}
	.st3{fill:#FFFFFF;}
</style>
<polygon class="st0" points="39.5,442.6 0,0 433.6,0 394.1,442.5 216.5,491.7 "/>
<polygon class="st1" points="216.8,454.1 360.3,414.3 394,36.2 216.8,36.2 "/>
<polygon class="st2" points="216.8,200.3 145,200.3 140,144.7 216.8,144.7 216.8,90.5 216.6,90.5 80.7,90.5 82,105 95.3,254.6 
	216.8,254.6 "/>
<polygon class="st2" points="216.8,341.3 216.6,341.4 156.1,325 152.2,281.8 122.9,281.8 97.7,281.8 105.4,367 216.5,397.8 
	216.8,397.8 "/>
<polygon class="st3" points="216.6,200.3 216.6,254.6 283.4,254.6 277.1,325 216.6,341.3 216.6,397.8 327.9,367 328.7,357.8 
	341.5,214.9 342.8,200.3 328.1,200.3 "/>
<polygon class="st3" points="216.6,90.5 216.6,124.2 216.6,144.6 216.6,144.7 347.5,144.7 347.5,144.7 347.7,144.7 348.8,132.5 
	351.3,105 352.6,90.5 "/>
</svg>
