<?xml version="1.0" encoding="utf-8"?>
<!-- Generator: Adobe Illustrator 25.2.0, SVG Export Plug-In . SVG Version: 6.00 Build 0)  -->
<svg version="1.1" id="Layer_1" xmlns="http://www.w3.org/2000/svg" xmlns:xlink="http://www.w3.org/1999/xlink" x="0px" y="0px"
	 viewBox="0 0 379.7 512" style="enable-background:new 0 0 379.7 512;" xml:space="preserve">
<style type="text/css">
	.st0{fill:#DB380E;}
	.st1{fill:#73A1FB;}
</style>
<g>
	<path class="st0" d="M187.3,94.9c-23.7,16.6-50.5,35.5-64.8,66.7c-25,54.4,51.1,113.8,54.3,116.3c0.8,0.6,1.7,0.9,2.6,0.9
		c1,0,1.9-0.3,2.7-1c1.5-1.3,1.9-3.4,1-5.2c-0.3-0.5-27.6-53.5-26.5-91.6c0.4-13.2,18.9-28.3,38.5-44.2c18-14.6,38.3-31.1,50.3-50.4
		c26.2-42.5-2.9-84.3-3.2-84.7c-1.2-1.6-3.3-2.2-5.1-1.4c-1.8,0.8-2.8,2.8-2.4,4.7c0.1,0.3,5.7,27.9-10,56.4
		C218.1,73.3,203.8,83.3,187.3,94.9z"/>
	<path class="st0" d="M287,113.6c1.7-1.3,2.2-3.6,1.1-5.4c-1-1.8-3.2-2.6-5.2-1.9c-4,1.5-98.4,37.9-98.4,81.9
		c0,30.3,12.9,46.3,22.4,58c3.7,4.6,6.9,8.5,8,11.9c3,9.7-4.1,27.4-7,33.3c-0.9,1.7-0.4,3.8,1,5c0.8,0.7,1.8,1,2.7,1
		c0.8,0,1.7-0.2,2.4-0.8c1.6-1.1,39.7-28,32.8-60.4c-2.5-12.3-8.6-21.3-13.9-29.3c-8.3-12.3-14.3-21.2-5.2-37.6
		C238.4,150.3,286.5,114,287,113.6z"/>
</g>
<g>
	<path class="st1" d="M41.3,298.2c-1.6,4.8-0.9,9.7,2.2,13.9c10.2,14.2,46.5,22,102.1,22c0,0,0,0,0,0c7.5,0,15.5-0.1,23.6-0.4
		c88.9-3.2,121.8-30.9,123.2-32c1.5-1.3,1.9-3.4,1-5.1c-0.9-1.7-2.9-2.6-4.8-2.1C257.2,303,198.8,306,158.2,306
		c-45.4,0-68.5-3.3-74.1-5.7c2.9-4,20.8-11.1,43-15.5c2.1-0.4,3.6-2.4,3.4-4.5s-2-3.8-4.2-3.8C113.3,276.6,48.1,277.6,41.3,298.2z"
		/>
	<path class="st1" d="M338.7,269.7c-18.3,0-35.7,9.2-36.4,9.6c-1.7,0.9-2.6,2.9-2.1,4.7c0.5,1.9,2.1,3.2,4.1,3.2
		c0.4,0,39.1,0.3,42.6,22.4c3.1,19.1-36.6,50-52.2,60.3c-1.7,1.1-2.3,3.3-1.6,5.1c0.7,1.6,2.2,2.6,3.9,2.6c0.3,0,0.6,0,0.9-0.1
		c3.7-0.8,90.4-19.9,81.2-70.4C373.4,276.2,354,269.7,338.7,269.7z"/>
	<path class="st1" d="M279.2,363.8c0.3-1.6-0.4-3.3-1.7-4.2L256.7,345c-1-0.7-2.3-0.9-3.5-0.6c-0.2,0.1-22,5.8-53.5,9.3
		c-12.5,1.4-26.6,2.1-40.6,2.1c-31.6,0-52.2-3.7-55.2-6.4c-0.4-0.8-0.3-1.1-0.2-1.3c0.5-1.5,3.5-3.3,5.4-4c2.1-0.8,3.2-3,2.6-5.2
		c-0.6-2.1-2.8-3.4-5-2.9c-20.9,5-31.1,12.1-30.3,20.9c1.3,15.7,37.7,23.7,68.4,25.9c4.4,0.3,9.2,0.5,14.2,0.5c0,0,0,0,0,0
		c51.1,0,116.6-16,117.2-16.2C277.7,366.7,278.9,365.4,279.2,363.8z"/>
	<path class="st1" d="M122.5,397.4c1.6-1,2.3-3,1.7-4.8c-0.6-1.8-2.2-3-4.1-2.9c-2.8,0.1-27.3,1.2-29.1,16.8
		c-0.5,4.7,0.8,8.9,4,12.7c8.8,10.4,32.6,16.7,72.7,19c4.7,0.3,9.6,0.4,14.3,0.4c51,0,85.4-16,86.8-16.7c1.4-0.7,2.3-2,2.4-3.6
		s-0.7-3-2-3.8l-26.3-16c-0.9-0.6-2-0.7-3-0.5c-0.2,0-16.8,3.5-42,6.9c-4.8,0.6-10.7,1-17.7,1c-25.1,0-53.1-4.1-58.5-6.8
		C121.6,398.6,121.7,398,122.5,397.4z"/>
	<path class="st1" d="M158.3,486.9c116.9-0.1,179.6-20.9,191.7-34c4.3-4.6,4.7-9,4.4-11.9c-0.9-7-7.3-11.4-8-11.8
		c-1.8-1.1-4.1-0.8-5.5,0.7c-1.4,1.6-1.4,3.9,0,5.5c0.7,0.9,1.2,2.5-1,4.7c-4.8,4.5-53.5,18.2-134.7,22.3
		c-11.1,0.6-22.8,0.9-34.6,0.9c-72.6,0-125.8-9.9-132.7-15.7c2.7-3.9,21.5-10,41.5-13.5c2.3-0.4,3.8-2.5,3.4-4.8
		c-0.3-2.3-2.4-3.8-4.7-3.5c-0.6,0.1-2.5,0.2-4.7,0.3c-33,2-71.1,6.5-73.1,23.5c-0.6,5.2,0.9,9.9,4.6,14
		C13.6,473.5,39.2,486.8,158.3,486.9C158.3,486.9,158.3,486.9,158.3,486.9z"/>
	<path class="st1" d="M372.9,456.6c-1.7-0.8-3.6-0.4-4.8,1c-0.2,0.2-17.7,18.6-70.6,29.3c-20.2,4.1-58.2,6.1-112.8,6.1
		c-54.7,0-106.8-2.2-107.4-2.2c-2.2-0.1-4,1.5-4.3,3.6c-0.3,2.1,1.1,4.2,3.2,4.7c0.5,0.1,55.1,12.9,129.8,12.9
		c35.8,0,70.6-2.9,103.5-8.6c61.4-10.8,65.7-41.2,65.8-42.5C375.5,459.1,374.5,457.3,372.9,456.6z"/>
</g>
</svg>
