<?xml version="1.0" encoding="utf-8"?>
<!-- Generator: Adobe Illustrator 25.2.0, SVG Export Plug-In . SVG Version: 6.00 Build 0)  -->
<svg version="1.1" xmlns="http://www.w3.org/2000/svg" xmlns:xlink="http://www.w3.org/1999/xlink" x="0px" y="0px"
	 viewBox="0 0 80.6 113.3" style="enable-background:new 0 0 80.6 113.3;" xml:space="preserve">
<style type="text/css">
	.st0{fill:#E6A329;}
	.st1{fill:#F1BF22;}
	.st2{fill:#FFFFFF;}
	.st3{fill:#EBEBEB;}
</style>
<g id="Layer_1">
	<g id="code_x5F_html5">
	</g>
	<g>
		<polygon class="st0" points="80.6,22.1 40.3,22.1 40.3,22.1 0,22.1 7.5,104 40.3,113.3 40.3,113.3 40.3,113.3 40.3,113.3 
			40.3,113.3 73,104 		"/>
		<polygon class="st1" points="40.3,28.8 40.3,106.4 40.3,106.4 66.8,98.9 73.2,28.8 		"/>
		<polygon class="st2" points="61.4,38.9 20.6,38.9 17.8,69.5 17.8,69.3 52.5,69.3 51.3,82.3 40.3,85.5 29.1,82.3 28.4,74.4 
			18.2,74.4 19.7,90.1 40.3,95.9 60.9,90.1 63.7,59.3 27,59.3 27.5,49 53,49 53.3,54.9 63.6,54.9 		"/>
		<g>
			<path class="st3" d="M40.3,38.9H20.6l-2.8,30.7l0.1-0.2h22.5v-10H28.4L28.9,49h11.4V38.9z M28.4,74.4H18.2l1.5,15.7l20.6,5.8
				V85.5l-11.2-3.2L28.4,74.4z"/>
		</g>
		<g>
			<polygon points="32.4,10.1 25.3,10.1 25.3,15.2 32.4,15.2 36.3,15.2 37.6,15.2 37.6,-0.1 32.4,-0.1 			"/>
			<path d="M55.3,0H42.8c0,0,0,2.7,0,5.4c1.7,1.7,2.5,2.5,5,4.9c-1.4,0-5,0-5,0v4.9h12.5v-4.9l-5-4.9h5V0z"/>
		</g>
	</g>
</g>
<g id="Layer_2">
</g>
</svg>
