<?xml version="1.0" encoding="utf-8"?>
<!-- Generator: Adobe Illustrator 25.2.0, SVG Export Plug-In . SVG Version: 6.00 Build 0)  -->
<svg version="1.1" xmlns="http://www.w3.org/2000/svg" xmlns:xlink="http://www.w3.org/1999/xlink" x="0px" y="0px"
	 viewBox="0 0 300.5 300.9" style="enable-background:new 0 0 300.5 300.9;" xml:space="preserve">
<style type="text/css">
	.st0{fill:url(#path7990_1_);}
	.st1{fill:url(#path7992_1_);}
	.st2{fill:#FFFFFF;}
</style>
<g id="Lager_2">
</g>
<g id="g7640" transform="translate(638.5845,497.4187)">
	<g id="g8691" transform="matrix(1.772991,0,0,1.772991,-1062.907,-953.6594)">
		
			<linearGradient id="path7990_1_" gradientUnits="userSpaceOnUse" x1="281.5844" y1="375.8914" x2="135.3126" y2="377.0543" gradientTransform="matrix(1.5208 0 0 -1.5208 -63.4542 892.2981)">
			<stop  offset="0" style="stop-color:#366A96"/>
			<stop  offset="1" style="stop-color:#3679B0"/>
		</linearGradient>
		<path id="path7990" class="st0" d="M283.1,280c0-11.7,3.1-18,20.4-21.1c11.7-2.1,26.8-2.3,40.9,0c11.1,1.8,20.4,10.1,20.4,21.1
			v38.6c0,11.3-9.1,20.6-20.4,20.6h-40.9c-13.9,0-25.5,11.8-25.5,25.2v18.5h-14c-11.9,0-18.8-8.6-21.7-20.6
			c-3.9-16.1-3.8-25.7,0-41.1c3.3-13.5,13.7-20.6,25.5-20.6h15.3h40.9v-5.1h-40.9V280L283.1,280z"/>
		
			<linearGradient id="path7992_1_" gradientUnits="userSpaceOnUse" x1="310.5276" y1="347.4957" x2="20.9792" y2="347.4957" gradientTransform="matrix(1.5208 0 0 -1.5208 -63.4542 892.2981)">
			<stop  offset="0" style="stop-color:#FFC836"/>
			<stop  offset="1" style="stop-color:#FFE873"/>
		</linearGradient>
		<path id="path7992" class="st1" d="M364.8,403.4c0,11.7-10.1,17.6-20.4,20.6c-15.5,4.5-27.9,3.8-40.9,0
			c-10.8-3.1-20.4-9.6-20.4-20.6v-38.6c0-11.1,9.2-20.6,20.4-20.6h40.9c13.6,0,25.5-11.8,25.5-25.7v-18h15.3
			c11.9,0,17.5,8.8,20.4,20.6c4.1,16.3,4.3,28.4,0,41.1c-4.1,12.3-8.6,20.6-20.4,20.6h-20.4h-40.9v5.1h40.9V403.4z"/>
		<path id="path7994" class="st2" d="M293.3,277.5c0-4.3,3.4-7.7,7.7-7.7c4.2,0,7.7,3.5,7.7,7.7c0,4.3-3.4,7.7-7.7,7.7
			C296.7,285.2,293.3,281.7,293.3,277.5z"/>
		<path id="path7996" class="st2" d="M339.3,406c0-4.3,3.4-7.7,7.7-7.7c4.2,0,7.7,3.5,7.7,7.7c0,4.3-3.4,7.7-7.7,7.7
			C342.7,413.7,339.3,410.2,339.3,406z"/>
	</g>
</g>
</svg>
