<?xml version="1.0" encoding="utf-8"?>
<!-- Generator: Adobe Illustrator 25.2.0, SVG Export Plug-In . SVG Version: 6.00 Build 0)  -->
<svg version="1.1" id="Layer_1" xmlns="http://www.w3.org/2000/svg" xmlns:xlink="http://www.w3.org/1999/xlink" x="0px" y="0px"
	 viewBox="0 0 2500 2500" style="enable-background:new 0 0 2500 2500;" xml:space="preserve">
<style type="text/css">
	.st0{fill:#007ACC;}
	.st1{fill:#FFFFFF;}
</style>
<path class="st0" d="M0,1250V0h2500v2500H0"/>
<path class="st1" d="M548.1,1254.4v101.9h325v925h230.6v-925h325v-100c0-56.3,0-101.9-2.5-103.1c0-1.9-198.1-2.5-438.8-2.5
	l-437.5,1.9V1255L548.1,1254.4L548.1,1254.4z M2008.8,1150c63.8,15,112.5,43.8,156.3,89.4c23.1,25,57.5,68.8,60,80
	c0,3.8-108.1,76.9-173.8,117.5c-2.5,1.9-12.5-8.7-22.5-25c-32.5-46.2-65.6-66.3-117.5-70c-75-5-125,34.4-125,100
	c0,20,3.8,31.3,11.2,47.5c16.9,34.4,48.1,55,145,97.5c178.8,76.9,256.2,127.5,303.1,200c53.1,81.3,65,208.8,29.4,304.4
	c-40,104.4-137.5,175-276.9,198.1c-43.8,7.5-143.8,6.3-190.6-1.9c-100-18.8-195.6-68.8-254.4-133.1c-23.1-25-67.5-91.9-65-96.3
	l23.8-15l93.8-54.4l70.6-41.3l16.3,21.9c20.6,32.5,66.9,76.3,93.8,91.3c81.3,41.9,190,36.3,243.8-12.5c23.1-21.3,33.1-43.8,33.1-75
	c0-28.8-4.4-41.9-18.8-63.8c-20-27.5-60-50-172.5-100c-129.4-55-184.4-90-235.6-143.8c-29.4-32.5-56.3-83.1-68.8-125
	c-9.4-36.3-12.5-125-3.8-160.6c26.9-125,121.2-212.5,256.3-237.5c43.8-8.7,146.9-5,190,6.3L2008.8,1150L2008.8,1150z"/>
</svg>
