<?xml version="1.0" encoding="utf-8"?>
<!-- Generator: Adobe Illustrator 25.1.0, SVG Export Plug-In . SVG Version: 6.00 Build 0)  -->
<svg version="1.1" id="Lager_1" xmlns="http://www.w3.org/2000/svg" xmlns:xlink="http://www.w3.org/1999/xlink" x="0px" y="0px"
	 viewBox="0 0 1685 856" style="enable-background:new 0 0 1685 856;" xml:space="preserve">
<style type="text/css">
	.st0{fill:#FFFFFF;}
</style>
<path class="st0" d="M63.4,589.8c0,0-135-105-11-204c0,0-104-178,109-203c0,0,37-155,158-98c0,0,80-98,191-13c0,0,145-156,330-8
	c0,0,140-100,299,5c0,0,146-59,213,74c0,0,178-39,176,85c0,0,162-20,124,135c0,0,98,107-46,138c0,0,112,140-65,178
	c0,0-21,152-170,99c0,0-164,161-306,21c0,0-192,77-278-43c0,0-147,153-267,8c0,0-160,121-319-16C201.4,747.8,21.4,755.8,63.4,589.8z
	"/>
</svg>
