<svg id="Lager_1" data-name="Lager 1" xmlns="http://www.w3.org/2000/svg" viewBox="0 0 1923.6 1923.6"><path d="M1924.3,962.5c-320.6,88.53-338.54,172.87-75.58,374.38-327.86-48.08-374.81,21-206.12,305.72-284.72-168.69-353.8-121.74-305.72,206.12-201.51-263-285.85-245-374.38,75.58-88.53-320.6-172.87-338.54-374.38-75.58,48.08-327.86-21-374.81-305.72-206.12,168.69-284.72,121.74-353.8-206.12-305.72C339.24,1135.37,321.3,1051,.7,962.5,321.3,874,339.24,789.63,76.28,588.12c327.86,48.08,374.81-21,206.12-305.72C567.12,451.09,636.2,404.14,588.12,76.28,789.63,339.24,874,321.3,962.5.7c88.53,320.6,172.87,338.54,374.38,75.58-48.08,327.86,21,374.81,305.72,206.12-168.69,284.72-121.74,353.8,206.12,305.72C1585.76,789.63,1603.7,874,1924.3,962.5Z" transform="translate(-0.7 -0.7)" style="fill:#f0c900"/><circle cx="961.8" cy="961.8" r="620.5" style="fill:#ffe05f"/></svg>